# xmcd
#
# Track frame offsets: 
#        150
#        22034
#        46382
#        68291
#        82977
#        109354
#        131353
#        155846
#        180592
#        204300
#        228650
#        254506
#        280714
#
# Disc length: 4151 seconds
#
# Revision: 0
# Processed by: cddbd v1.5.2PL0 Copyright (c) Steve Scherf et al.
# Submitted via: ExactAudioCopy v0.95b4
#
DISCID=ae10350d
DTITLE=Various Artist - Underwater Episode 5 CD2 Mixed by Magik Johnson
DYEAR=2006
DGENRE=House
TTITLE0=DJ T - Funk On You (Dub)
TTITLE1=Magik Johnson - I'll Take You There (Main Mix)
TTITLE2=Diringer - Flake Escape
TTITLE3=Jazzy Eyewear - Gotta Be Real (Zoo Brazil Remix)
TTITLE4=Magic Johnson - Jump
TTITLE5=Ian Pooley - Higgledy Piggledy
TTITLE6=Magik Johnson - I Give Up (Original)
TTITLE7=Magik Johnson Feat. Sandy Mill - Not What You Know
TTITLE8=Margot Meets The Melody Maker - Torch (Extrawelt Remix)
TTITLE9=Trentemoller - Sunstroke
TTITLE10=Kerri Chandler - Bar A Thym (Tom Middleton Cosmos Mix)
TTITLE11=Magik Johnson - Malone
TTITLE12=Mr Gone - Do For Love (Magik Johnson Remix)
EXTD=
EXTT0=
EXTT1=
EXTT2=
EXTT3=
EXTT4=
EXTT5=
EXTT6=
EXTT7=
EXTT8=
EXTT9=
EXTT10=
EXTT11=
EXTT12=
PLAYORDER=
